<svg width="32" height="32" viewBox="0 0 32 32" fill="none" xmlns="http://www.w3.org/2000/svg">
<circle cx="16" cy="16" r="16" fill="#C7FF6D"/>
<path d="M24.4999 18.7345V12.5897C24.4999 11.6657 23.7428 10.9138 22.8125 10.9138C22.0532 10.9138 21.4164 11.4188 21.2048 12.1059C21.2048 12.1059 21.8709 12.4143 21.8742 12.4198C22.8159 12.8924 23.3119 13.8086 23.3604 15.1683L24.5011 25.4379H22.2377L21.4456 19.1624L20.1013 25.4379H17.7995L19.4533 17.72L14.3773 19.5434C14.1084 19.6383 13.8339 19.7165 13.5459 19.7657L15.5484 25.4379H13.1634C13.1634 25.4379 11.0304 19.5545 11 19.5434V25.4379H8.75001V17.9491C8.057 17.0888 7.625 16.0118 7.625 14.8241V13.1483H5.9375C5.006 13.1483 4.25 12.3975 4.25 11.4724C4.25 10.5473 5.006 9.79656 5.9375 9.79656H6.49999C6.49999 8.562 7.50687 7.56207 8.75001 7.56207H11L19.1473 11.1898C19.7165 9.72505 21.1397 8.67931 22.8125 8.67931C24.9837 8.67931 26.7501 10.4334 26.7501 12.5897V18.7345H24.4999Z" fill="#616161"/>
<path opacity="0.3" d="M11 19.5434V25.4379H8.75V17.9491C9.641 19.1534 11.0304 19.5545 11 19.5434ZM21.4456 19.1624L22.2377 25.4379H24.5011L23.5089 16.5L21.7404 17.1458L21.4456 19.1624Z" fill="black"/>
<path opacity="0.6" d="M21.1249 13.1483C21.1249 12.7963 21.1948 12.4634 21.2972 12.1461L21.8664 12.3997C21.8664 12.3997 21.872 12.4143 21.8754 12.4198C22.817 12.8924 23.3131 13.8086 23.3615 15.1683L23.3693 15.1671L23.4976 16.3279C22.1262 15.9023 21.1249 14.6499 21.1249 13.1483ZM8.75001 7.56207C7.50687 7.56207 6.49999 8.562 6.49999 9.79656H5.9375C5.006 9.79656 4.25 10.5473 4.25 11.4724C4.25 12.3975 5.006 13.1483 5.9375 13.1483H7.625C8.86814 13.1483 9.87501 12.1483 9.87501 10.9138V7.56207H8.75001Z" fill="#D84315"/>
<path opacity="0.4" d="M8.75001 17.9491C8.057 17.0888 7.625 16.0118 7.625 14.8241V13.1483C8.86814 13.1483 9.87499 12.1483 9.87499 10.9138V7.56207H11L13.25 8.57429C13.2691 10.6367 13.475 16.2051 11.1901 17.4943C10.1293 18.0921 8.75001 17.9491 8.75001 17.9491Z" fill="white"/>
</svg>
