<svg width="32" height="32" viewBox="0 0 32 32" fill="none" xmlns="http://www.w3.org/2000/svg">
<circle cx="16" cy="16" r="16" fill="#AF6DFF"/>
<path d="M26.5396 26.0981C26.5396 26.0981 16.7161 23.9467 16.3876 23.8441L16.3663 23.8398L16.3674 23.8376C14.3176 23.1864 12.7584 21.5297 12.287 19.4809L12.0643 20.4032C11.7774 21.912 10.406 23.06 8.75 23.06C6.88588 23.06 5.375 21.6096 5.375 19.82C5.375 18.3599 6.38863 17.1395 7.77238 16.7345L12.755 15.6113C12.7865 15.5486 12.8113 15.4827 12.845 15.4223C12.6121 15.4709 12.3725 15.5 12.125 15.5C10.658 15.5 8.867 14.4341 8.768 12.4263C7.058 10.8819 5.5865 10.64 4.25 10.64V9.02001C5.681 9.02001 7.355 9.25653 9.209 10.6562C9.44075 10.2685 9.749 9.93153 10.1225 9.66585C8.75562 8.13009 8.75 5.94093 8.75 4.74321L10.4375 4.70001V4.74321C10.4375 6.35565 10.5669 8.11281 11.9011 9.04161C11.9765 9.03729 12.0485 9.02001 12.125 9.02001C13.9891 9.02001 15.5 10.4705 15.5 12.26C15.5 12.4976 15.4696 12.7277 15.419 12.9512C15.4831 12.9188 15.5518 12.8951 15.6159 12.8648L16.787 8.07717C17.21 6.75093 18.4801 5.78001 20 5.78001C21.8641 5.78001 23.375 7.23045 23.375 9.02001C23.375 10.5288 22.2961 11.7848 20.8426 12.1455L19.6411 12.4145C21.9069 12.894 23.7091 14.5529 24.293 16.6977L26.5396 26.0981Z" fill="#FBC02D"/>
<path opacity="0.5" d="M22.25 25.1552L25.5564 21.9811L26.0019 23.8441L24.1918 25.5818C23.5978 25.4522 22.934 25.3053 22.25 25.1552ZM19.6164 24.5731L24.9511 19.4517L24.5056 17.5887L17.6803 24.1411C18.2203 24.2631 18.884 24.4111 19.6164 24.5731ZM15.2649 23.3505L23.6709 15.2808C23.3874 14.8023 23.0431 14.366 22.6381 13.9815L13.907 22.3634C14.3075 22.7511 14.7676 23.0784 15.2649 23.3505ZM11.9011 9.04161C10.5669 8.11281 10.4375 6.35673 10.4375 4.74321V4.70001L8.75 4.74321C8.75 5.94201 8.75563 8.13009 10.1225 9.66585C10.6265 9.30621 11.2363 9.08481 11.9011 9.04161ZM8.75 12.26C8.75 11.6736 8.9255 11.1303 9.209 10.6562C7.355 9.25653 5.681 9.02001 4.25 9.02001V10.64C5.5865 10.64 7.058 10.8819 8.768 12.4263C8.76575 12.3691 8.75 12.3194 8.75 12.26Z" fill="black"/>
<path opacity="0.4" d="M12.0643 20.4011C11.7774 21.912 10.406 23.06 8.75 23.06C6.88588 23.06 5.375 21.6096 5.375 19.82C5.375 18.3599 6.38863 17.1395 7.77238 16.7345L13.25 15.5L12.0643 20.4011ZM23.375 9.02003C23.375 7.23047 21.8641 5.78003 20 5.78003C18.4801 5.78003 17.21 6.75095 16.787 8.07719L15.5 13.34L20.8426 12.1455C22.2961 11.7848 23.375 10.5288 23.375 9.02003Z" fill="white"/>
</svg>
