<svg width="32" height="32" viewBox="0 0 32 32" fill="none" xmlns="http://www.w3.org/2000/svg">
<circle cx="16" cy="16" r="16" fill="#6DBDFF"/>
<path d="M15.325 24.5H13.15V21.125H15.325V24.5ZM12.703 8.57452L6.625 11.5625L10.975 15.0084L12.703 8.57452Z" fill="#FBC02D"/>
<path d="M23.0256 18.2664L28.3751 23.375H24.025L21.2236 20.477C19.9121 21.584 18.2373 22.25 16.4125 22.25C12.2082 22.25 8.8 18.7242 8.8 14.375C8.8 10.8076 11.0935 7.42134 14.2375 6.31659V9.87497L23.0256 18.2664Z" fill="#BF360C"/>
<path opacity="0.3" d="M22.572 17.8344C21.7315 18.3845 20.7429 18.7153 19.675 18.7153C16.6713 18.7153 14.2375 16.1975 14.2375 13.0902V9.875L22.572 17.8344Z" fill="black"/>
<path opacity="0.5" d="M13.15 12.6875C13.15 14.2411 11.9331 15.5 10.4313 15.5C9.83529 15.5 9.28829 15.2964 8.84023 14.96C8.8261 14.7654 8.8 14.5741 8.8 14.375C8.8 12.7843 9.26327 11.2048 10.0517 9.87728C10.1757 9.86039 10.3029 9.87503 10.4313 9.87503C11.9331 9.87503 13.15 11.1339 13.15 12.6875Z" fill="black"/>
</svg>
