<svg width="32" height="32" viewBox="0 0 32 32" fill="none" xmlns="http://www.w3.org/2000/svg">
<circle cx="16" cy="16" r="16" fill="#FFB66D"/>
<path d="M26.0833 25.25C26.0833 25.7569 25.6736 26.1666 25.1667 26.1666H21.5C20.9931 26.1666 20.5833 25.7569 20.5833 25.25C20.5833 24.0565 21.3524 23.0481 22.4167 22.6686V22.5C22.4167 20.9838 21.1828 19.75 19.6667 19.75C18.2788 19.75 16.9488 19.75 16.9167 19.75C15.7736 19.75 14.5058 19.7271 13.25 19.5327V22.5C11.8823 22.5 10.5953 20.9911 10.5156 18.7481C8.02684 17.6041 6.05692 15.1593 5.94692 9.9389C5.94326 9.7849 5.91667 9.29723 5.91667 9.20831C5.91667 8.44931 6.53267 7.83331 7.29167 7.83331C7.53001 7.83331 7.75184 7.89931 7.94709 8.00656C8.01767 8.04506 22.017 17.3639 22.017 17.3639C24.2711 18.7444 24.3481 20.2606 24.2876 22.6806C25.3335 23.0711 26.0833 24.0702 26.0833 25.25Z" fill="#0097A7"/>
<path opacity="0.4" d="M19.3807 19.75C17.9928 19.75 16.9487 19.75 16.9167 19.75C15.7736 19.75 14.5058 19.7271 13.25 19.5327C13.25 19.5327 11.5881 19.2339 10.5156 18.7481C8.04241 17.6114 6.07616 15.273 5.94691 9.9389L19.3807 19.75Z" fill="white"/>
<path opacity="0.3" d="M10.5156 18.7481C11.589 19.2348 13.25 19.5327 13.25 19.5327V22.5C11.8823 22.5 10.5953 20.9911 10.5156 18.7481ZM6.20084 8.37964C6.02484 8.61064 5.91667 8.89572 5.91667 9.20831C5.91667 9.29722 5.92676 9.38339 5.94326 9.46772C5.94326 9.46864 5.94234 9.46956 5.94234 9.47047C5.94234 9.62539 5.94417 9.78856 5.94692 9.93889L10.0169 12.8942L10.8318 11.7869L6.20084 8.37964ZM26.0833 25.25C26.0833 25.7569 25.6736 26.1666 25.1667 26.1666H21.5C20.9931 26.1666 20.5833 25.7569 20.5833 25.25C20.5833 24.0565 21.3524 23.0481 22.4167 22.6686L24.2885 22.6806C25.3335 23.0711 26.0833 24.0702 26.0833 25.25Z" fill="black"/>
</svg>
